<?xml version="1.0" standalone="no"?>
<!DOCTYPE svg PUBLIC "-//W3C//DTD SVG 20010904//EN"
 "http://www.w3.org/TR/2001/REC-SVG-20010904/DTD/svg10.dtd">
<svg version="1.0" xmlns="http://www.w3.org/2000/svg"
 width="315.000000pt" height="90.000000pt" viewBox="0 0 315.000000 90.000000"
 preserveAspectRatio="xMidYMid meet">

<g transform="translate(0.000000,90.000000) scale(0.100000,-0.100000)"
fill="#000000" stroke="none">
<path d="M586 787 c3 -8 -1 -33 -9 -55 -13 -37 -13 -42 0 -42 8 0 12 4 8 9 -3
5 -1 12 5 16 5 3 15 -5 22 -19 6 -14 16 -26 22 -26 6 0 5 5 -2 12 -17 17 -15
45 6 57 16 10 16 10 0 11 -9 0 -20 -4 -23 -10 -3 -5 -11 -10 -16 -10 -9 0 -7
17 8 58 3 6 -2 12 -11 12 -9 0 -13 -6 -10 -13z"/>
<path d="M450 749 c0 -5 5 -7 10 -4 6 3 10 8 10 11 0 2 -4 4 -10 4 -5 0 -10
-5 -10 -11z"/>
<path d="M491 733 c8 -22 7 -30 -7 -40 -19 -14 -10 -16 17 -5 12 6 14 14 7 40
-5 17 -13 32 -18 32 -6 0 -5 -11 1 -27z"/>
<path d="M453 723 c-16 -6 -17 -43 -2 -43 5 0 7 5 4 10 -4 6 -1 17 5 25 13 16
12 16 -7 8z"/>
<path d="M372 681 c13 -15 27 -26 31 -24 10 6 -32 53 -46 53 -4 0 2 -13 15
-29z"/>
<path d="M714 701 c3 -5 -1 -14 -9 -21 -21 -17 -19 -42 5 -63 20 -17 22 -16
45 10 26 30 31 43 15 43 -5 0 -10 -4 -10 -8 0 -20 -27 -43 -43 -36 -21 8 -22
27 -2 44 17 14 20 40 4 40 -5 0 -8 -4 -5 -9z"/>
<path d="M325 691 c-5 -8 3 -23 21 -40 15 -14 23 -19 16 -10 -6 8 -15 26 -20
39 -6 17 -11 20 -17 11z"/>
<path d="M287 662 c-7 -10 42 -66 50 -58 3 3 -1 14 -10 24 -10 10 -17 24 -17
30 0 13 -16 16 -23 4z"/>
<path d="M513 610 c-25 -10 -59 -57 -49 -68 4 -3 37 4 74 17 37 12 74 25 82
28 12 4 12 7 -4 19 -22 16 -69 17 -103 4z"/>
<path d="M822 590 c2 -7 -11 -17 -28 -24 -17 -6 -29 -16 -27 -23 4 -10 8 -9
20 2 19 19 42 19 49 0 4 -8 11 -15 17 -15 7 0 7 4 -1 12 -7 7 -12 20 -12 29 0
10 -5 21 -10 24 -6 4 -9 1 -8 -5z"/>
<path d="M1156 556 c-18 -43 -32 -46 -48 -8 l-12 27 -4 -27 c-2 -18 -9 -28
-20 -28 -21 1 -52 23 -52 39 0 18 -28 13 -34 -6 -3 -10 -22 -35 -41 -56 -32
-35 -33 -37 -9 -31 25 7 58 -12 48 -27 -3 -5 -20 -10 -37 -10 l-32 -2 35 -6
c34 -6 35 -8 38 -53 3 -51 5 -49 -63 -74 -15 -5 -16 -8 -5 -11 8 -2 42 8 75
22 36 15 51 25 38 25 -20 0 -23 5 -23 45 l0 45 42 -4 c40 -3 68 -26 33 -26
-14 0 -15 -3 -5 -15 14 -16 10 -24 -39 -77 -14 -16 -20 -28 -14 -28 6 0 25 17
42 38 l30 37 1 -38 c0 -23 4 -36 10 -32 6 3 10 28 10 56 0 27 5 49 10 49 6 0
10 -22 10 -49 0 -28 4 -52 9 -55 12 -8 21 18 14 43 -8 29 8 26 42 -9 15 -16
32 -27 37 -24 14 9 9 24 -9 31 -41 14 -52 32 -39 66 6 18 14 35 19 38 4 3 0
20 -9 38 -12 25 -20 30 -36 25 -15 -4 -19 -2 -16 7 3 8 17 15 31 17 16 2 27 9
27 19 0 11 -6 14 -25 9 -29 -7 -31 -3 -9 19 12 12 14 19 6 27 -8 8 -15 0 -26
-26z m-122 -42 c4 -10 16 -14 33 -12 20 2 29 -2 31 -14 2 -12 -3 -18 -15 -18
-17 -1 -17 -1 0 -11 9 -5 17 -14 17 -19 0 -14 -37 -12 -46 1 -3 6 -15 9 -25 6
-10 -3 -22 -1 -25 5 -3 5 3 12 15 15 31 8 25 22 -9 21 -40 -1 -47 8 -26 31 19
21 41 19 50 -5z m106 -24 c0 -5 -4 -10 -10 -10 -5 0 -10 5 -10 10 0 6 5 10 10
10 6 0 10 -4 10 -10z m0 -45 c0 -8 -4 -15 -10 -15 -5 0 -10 7 -10 15 0 8 5 15
10 15 6 0 10 -7 10 -15z m35 5 c3 -5 1 -10 -4 -10 -6 0 -11 5 -11 10 0 6 2 10
4 10 3 0 8 -4 11 -10z m-35 -40 c0 -5 -4 -10 -10 -10 -5 0 -10 5 -10 10 0 6 5
10 10 10 6 0 10 -4 10 -10z m40 0 c0 -5 -4 -10 -10 -10 -5 0 -10 5 -10 10 0 6
5 10 10 10 6 0 10 -4 10 -10z"/>
<path d="M1390 555 c-19 -19 -52 -47 -73 -62 -22 -15 -34 -29 -28 -31 7 -2 20
3 30 12 20 18 167 24 156 6 -3 -5 -32 -10 -64 -10 l-57 0 -13 -61 c-8 -33 -24
-76 -37 -95 -13 -19 -19 -34 -13 -34 5 0 23 22 40 49 27 42 36 49 71 54 22 3
51 1 64 -3 28 -11 31 -7 35 46 4 50 -23 99 -49 89 -39 -15 -72 -17 -72 -5 0
12 39 49 53 50 5 0 33 -20 61 -45 29 -25 63 -45 75 -45 35 0 24 16 -24 35 -26
9 -58 32 -73 51 -15 19 -32 34 -38 34 -5 0 -25 -16 -44 -35z m86 -112 c-7 -7
-87 -5 -95 3 -2 2 20 4 49 4 29 0 50 -3 46 -7z m-1 -33 c4 -6 -15 -10 -49 -10
-31 0 -56 5 -56 10 0 6 22 10 49 10 28 0 53 -4 56 -10z"/>
<path d="M221 561 c-8 -14 -8 -21 -1 -21 5 0 10 7 10 16 0 18 38 10 56 -12 10
-12 12 -12 16 4 3 10 0 19 -6 20 -6 1 -23 4 -38 8 -20 5 -29 1 -37 -15z"/>
<path d="M542 543 c-58 -21 -70 -28 -61 -39 7 -8 31 -14 58 -14 49 0 80 18
100 58 15 29 -1 28 -97 -5z"/>
<path d="M2170 532 c0 -15 -7 -38 -16 -50 -14 -20 -22 -23 -58 -17 -38 5 -40
5 -22 -9 11 -9 29 -13 43 -10 14 4 23 2 23 -5 0 -21 -30 -71 -67 -112 -20 -22
-33 -42 -29 -46 11 -11 47 30 87 99 57 98 106 121 96 44 -10 -71 -26 -98 -55
-91 -17 4 -23 2 -20 -7 3 -7 16 -14 29 -16 21 -3 29 5 48 47 13 27 24 66 25
88 1 37 0 38 -31 35 -32 -3 -33 -2 -33 37 0 23 -4 41 -10 41 -5 0 -10 -12 -10
-28z"/>
<path d="M240 521 c0 -18 30 -25 43 -11 9 10 9 11 -1 6 -7 -4 -19 -2 -27 4
-11 9 -15 9 -15 1z"/>
<path d="M2525 508 c-22 -5 -55 -8 -72 -6 -18 2 -33 0 -33 -4 0 -18 35 -21 97
-8 35 7 66 10 69 7 8 -8 -44 -102 -70 -126 -12 -12 -40 -30 -62 -41 -23 -11
-32 -19 -21 -20 44 -1 97 44 156 133 49 72 33 89 -64 65z"/>
<path d="M360 475 c7 -9 41 -35 76 -60 60 -41 64 -43 64 -22 0 24 -24 64 -50
84 -8 7 -35 13 -59 13 -38 0 -42 -2 -31 -15z"/>
<path d="M247 434 c-22 -30 -34 -30 -64 -2 -17 16 -23 18 -23 7 0 -8 12 -22
28 -31 l27 -17 -27 -1 c-17 0 -28 -6 -28 -13 0 -11 11 -12 45 -7 25 4 48 3 51
-2 9 -14 24 -9 18 7 -4 8 -18 15 -33 15 l-26 1 28 25 c16 13 27 28 25 33 -2 5
-11 -2 -21 -15z"/>
<path d="M340 438 c0 -13 12 -39 28 -57 22 -26 37 -34 75 -38 28 -3 47 -2 47
4 0 6 -28 30 -62 54 -90 64 -88 63 -88 37z"/>
<path d="M796 452 c-3 -4 -4 -22 -4 -38 1 -28 3 -30 32 -26 17 3 37 9 44 14
14 12 16 38 3 38 -5 0 -8 -7 -7 -16 1 -20 -44 -30 -56 -12 -15 24 -9 41 12 35
11 -3 18 -1 14 4 -7 11 -31 12 -38 1z"/>
<path d="M605 428 c-34 -27 -57 -80 -49 -113 3 -14 10 -23 14 -20 5 3 29 39
53 80 38 62 42 75 28 75 -10 0 -31 -10 -46 -22z"/>
<path d="M662 408 c-74 -126 -75 -128 -51 -128 11 0 36 15 55 34 27 27 34 42
34 74 0 53 -14 60 -38 20z"/>
<path d="M2845 430 c-38 -6 -37 -9 8 -24 13 -4 17 -14 15 -33 -3 -24 -8 -28
-41 -31 -24 -2 -37 -8 -34 -15 2 -7 15 -11 28 -9 13 2 57 6 96 9 43 3 70 9 67
15 -3 5 -23 7 -45 3 -44 -8 -56 6 -45 50 5 18 13 25 31 25 14 0 25 5 25 10 0
11 -42 11 -105 0z"/>
<path d="M1027 378 c-6 -42 -1 -48 14 -14 9 19 9 30 2 37 -7 7 -12 0 -16 -23z"/>
<path d="M937 368 c8 -43 23 -60 23 -26 0 32 -9 58 -21 58 -5 0 -6 -15 -2 -32z"/>
<path d="M1438 363 l-78 -4 0 -42 0 -42 85 0 85 0 0 48 c0 26 -3 46 -7 45 -5
-1 -43 -4 -85 -5z m35 -19 c27 -5 37 -11 37 -25 0 -15 -7 -19 -34 -19 -18 0
-48 -3 -65 -6 -28 -6 -31 -4 -31 19 0 35 21 42 93 31z"/>
<path d="M382 257 c-24 -26 -28 -57 -10 -75 15 -15 58 -16 58 -1 0 5 -5 7 -10
4 -17 -11 -50 5 -50 24 0 21 36 61 55 61 8 0 19 -8 24 -17 6 -10 11 -13 11 -7
0 15 -22 34 -40 34 -9 0 -26 -10 -38 -23z"/>
<path d="M583 248 c-4 -7 -8 -34 -8 -60 0 -43 2 -48 22 -48 12 0 25 5 28 11 4
6 0 9 -11 7 -23 -4 -33 40 -12 53 10 7 10 9 1 9 -20 0 -15 28 5 33 15 4 15 5
0 6 -9 0 -20 -5 -25 -11z"/>
<path d="M678 249 c-32 -18 -17 -79 19 -79 8 0 5 8 -8 21 -22 22 -21 37 4 53
24 15 34 -2 11 -20 -18 -14 -18 -15 4 -4 24 12 25 33 1 37 -8 2 -22 -2 -31 -8z"/>
<path d="M497 214 c32 -7 27 -58 -6 -62 -20 -3 -23 0 -18 19 4 16 3 19 -5 11
-18 -18 -1 -39 34 -44 l34 -3 -6 40 c-4 34 -9 40 -30 42 -21 1 -21 0 -3 -3z"/>
</g>
</svg>
